<?xml version="1.0" encoding="UTF-8" standalone="no"?><!DOCTYPE svg PUBLIC "-//W3C//DTD SVG 1.1//EN" "http://www.w3.org/Graphics/SVG/1.1/DTD/svg11.dtd"><svg width="128" height="128" viewBox="0 0 128 128" version="1.1" xmlns="http://www.w3.org/2000/svg" xmlns:xlink="http://www.w3.org/1999/xlink" xml:space="preserve" xmlns:serif="http://www.serif.com/" style="fill-rule:evenodd;clip-rule:evenodd;stroke-linecap:round;stroke-linejoin:round;stroke-miterlimit:1.5;"><rect id="ChangeProperty" x="0" y="0" width="128" height="128" style="fill:none;"/><circle cx="21.244" cy="64" r="10" style="fill:#fff;stroke:#000;stroke-width:8.33px;"/><rect x="57.567" y="6.004" width="67.314" height="115.991" style="fill:#62b0e2;"/><path d="M69.945,16.396l43.316,0" style="fill:none;stroke:#fff;stroke-width:8.33px;stroke-linecap:square;stroke-linejoin:miter;"/><path d="M69.945,32.088l43.316,0" style="fill:none;stroke:#fff;stroke-width:8.33px;stroke-linecap:square;stroke-linejoin:miter;"/><path d="M69.945,47.78l43.316,0" style="fill:none;stroke:#fff;stroke-width:8.33px;stroke-linecap:square;stroke-linejoin:miter;"/><path d="M69.945,63.471l43.316,0" style="fill:none;stroke:#fff;stroke-width:8.33px;stroke-linecap:square;stroke-linejoin:miter;"/><path d="M69.945,79.163l43.316,0" style="fill:none;stroke:#fff;stroke-width:8.33px;stroke-linecap:square;stroke-linejoin:miter;"/><path d="M69.945,110.546l43.316,0" style="fill:none;stroke:#fff;stroke-width:8.33px;stroke-linecap:square;stroke-linejoin:miter;"/><path d="M69.945,94.855l43.316,0" style="fill:none;stroke:#fff;stroke-width:8.33px;stroke-linecap:square;stroke-linejoin:miter;"/><path d="M37.125,64l20.443,-57.996l0,115.991l-20.443,-57.996Z" style="fill:#d8ffff;"/><path d="M101.411,81.236l-12.345,6.172l-6.173,-6.173l6.172,-12.345l12.346,12.346Z" style="fill:#d8ffff;"/><path d="M89.066,87.408l-12.345,6.172l6.172,-12.345l6.173,6.173Z" style="fill:#fff;"/><path d="M89.065,68.89l23.592,-23.592l12.346,12.346l-23.592,23.592l-12.346,-12.346Z" style="fill:#fff;"/></svg>