<?xml version="1.0" encoding="UTF-8" standalone="no"?>
<!DOCTYPE svg PUBLIC "-//W3C//DTD SVG 1.1//EN" "http://www.w3.org/Graphics/SVG/1.1/DTD/svg11.dtd">
<svg width="100%" height="100%" viewBox="0 0 128 128" version="1.1" xmlns="http://www.w3.org/2000/svg" xmlns:xlink="http://www.w3.org/1999/xlink" xml:space="preserve" xmlns:serif="http://www.serif.com/" style="fill-rule:evenodd;clip-rule:evenodd;stroke-linecap:round;stroke-linejoin:round;stroke-miterlimit:1.5;">
    <g transform="matrix(1,0,0,1,0,-1246)">
        <rect id="ConnectionNodeVisible" x="0" y="1246" width="128" height="128" style="fill:none;"/>
        <clipPath id="_clip1">
            <rect id="ConnectionNodeVisible1" serif:id="ConnectionNodeVisible" x="0" y="1246" width="128" height="128"/>
        </clipPath>
        <g clip-path="url(#_clip1)">
            <g transform="matrix(0.553852,0,0,0.553852,29.542459,1236.040281)">
                <circle cx="62.214" cy="76.707" r="18.055" style="fill:white;stroke:black;stroke-width:15.05px;"/>
            </g>
            <g transform="matrix(1.690292,0,0,3.804999,-51.868664,606.676191)">
                <rect x="64" y="187.47" width="9.099" height="15.794" style="fill:rgb(247,181,21);fill-opacity:0;stroke:rgb(247,181,21);stroke-width:2.83px;"/>
            </g>
            <g transform="matrix(0.745781,0,0,0.745781,-639.229345,658.53891)">
                <path d="M963.037,812.42C977.638,796.405 1002.974,797.394 1018,812.42" style="fill:white;stroke:rgb(128,128,128);stroke-width:11.17px;stroke-linecap:square;stroke-linejoin:miter;"/>
            </g>
            <g transform="matrix(-0.745781,-0,0,-0.745781,838.19046,1872.373473)">
                <path d="M963.037,812.42C977.638,796.405 1002.974,797.394 1018,812.42" style="fill:white;stroke:rgb(128,128,128);stroke-width:11.17px;stroke-linecap:square;stroke-linejoin:miter;"/>
            </g>
            <g transform="matrix(0.745781,0,0,0.745781,-588.424194,655.408815)">
                <circle cx="922.395" cy="817.998" r="5.578" style="fill:white;stroke:rgb(128,128,128);stroke-width:11.17px;stroke-linecap:square;stroke-linejoin:miter;"/>
            </g>
            <g transform="matrix(0.553852,0,0,0.553852,29.542459,1267.515798)">
                <circle cx="62.214" cy="76.707" r="18.055" style="fill:white;stroke:black;stroke-width:15.05px;"/>
            </g>
        </g>
    </g>
</svg>
