<?xml version="1.0" encoding="UTF-8" standalone="no"?>
<!DOCTYPE svg PUBLIC "-//W3C//DTD SVG 1.1//EN" "http://www.w3.org/Graphics/SVG/1.1/DTD/svg11.dtd">
<svg width="100%" height="100%" viewBox="0 0 128 128" version="1.1" xmlns="http://www.w3.org/2000/svg" xmlns:xlink="http://www.w3.org/1999/xlink" xml:space="preserve" xmlns:serif="http://www.serif.com/" style="fill-rule:evenodd;clip-rule:evenodd;stroke-linecap:square;stroke-miterlimit:1.5;">
    <g transform="matrix(1,0,0,1,-712,-712)">
        <g id="IsPileRefVisible" transform="matrix(1,0,0,1,534,356)">
            <rect x="178" y="356" width="128" height="128" style="fill:none;"/>
            <clipPath id="_clip1">
                <rect x="178" y="356" width="128" height="128"/>
            </clipPath>
            <g clip-path="url(#_clip1)">
                <g transform="matrix(1,0,0,1,0,351.665189)">
                    <g transform="matrix(0.745781,0,0,0.745781,-461.229345,-583.126279)">
                        <path d="M963.037,812.42C977.638,796.405 1002.974,797.394 1018,812.42" style="fill:white;stroke:rgb(128,128,128);stroke-width:11.17px;"/>
                    </g>
                    <g transform="matrix(-0.745781,-0,0,-0.745781,1016.19046,630.708284)">
                        <path d="M963.037,812.42C977.638,796.405 1002.974,797.394 1018,812.42" style="fill:white;stroke:rgb(128,128,128);stroke-width:11.17px;"/>
                    </g>
                    <g transform="matrix(0.745781,0,0,0.745781,-410.424194,-586.256374)">
                        <circle cx="922.395" cy="817.998" r="5.578" style="fill:white;stroke:rgb(128,128,128);stroke-width:11.17px;"/>
                    </g>
                </g>
                <g transform="matrix(0.553852,0,0,0.553852,207.542459,377.515798)">
                    <circle cx="62.214" cy="76.707" r="18.055" style="fill:white;stroke:black;stroke-width:15.05px;stroke-linecap:round;stroke-linejoin:round;"/>
                </g>
                <g transform="matrix(1,0,0,1,-954.081391,352)">
                    <g transform="matrix(62.5,0,0,62.5,1260.081391,132)">
                    </g>
                    <text x="1215.644px" y="132px" style="font-family:'AdobeGothicStd-Bold', 'Adobe Gothic Std', sans-serif;font-weight:700;font-size:62.5px;fill:rgb(50,173,91);">N</text>
                </g>
                <g transform="matrix(1.580092,0.017611,-0.013938,1.250573,112.101849,95.896835)">
                    <path d="M75.409,301.121L57.211,301.121L61.761,285.327L70.86,285.327L75.409,301.121Z" style="fill:rgb(98,176,226);fill-opacity:0;stroke:rgb(98,176,226);stroke-width:5.85px;stroke-linecap:round;stroke-linejoin:round;"/>
                </g>
                <g transform="matrix(1.690292,0,0,6,96.812248,-765.781002)">
                    <rect x="64" y="187.47" width="9.099" height="15.794" style="fill:rgb(98,176,226);fill-opacity:0;stroke:rgb(98,176,226);stroke-width:1.89px;stroke-linecap:round;stroke-linejoin:round;"/>
                </g>
                <g transform="matrix(3.160183,0,0,0.501868,-3.947988,379.290142)">
                    <rect x="64" y="187.47" width="9.099" height="15.794" style="fill:rgb(98,176,226);fill-opacity:0;stroke:rgb(98,176,226);stroke-width:3.68px;stroke-linecap:round;stroke-linejoin:round;"/>
                </g>
            </g>
        </g>
    </g>
</svg>
