<?xml version="1.0" encoding="UTF-8" standalone="no"?>
<!DOCTYPE svg PUBLIC "-//W3C//DTD SVG 1.1//EN" "http://www.w3.org/Graphics/SVG/1.1/DTD/svg11.dtd">
<svg width="100%" height="100%" viewBox="0 0 128 128" version="1.1" xmlns="http://www.w3.org/2000/svg" xmlns:xlink="http://www.w3.org/1999/xlink" xml:space="preserve" xmlns:serif="http://www.serif.com/" style="fill-rule:evenodd;clip-rule:evenodd;stroke-linecap:square;stroke-miterlimit:1.5;">
    <g transform="matrix(1,0,0,1,-1068,-2136)">
        <rect id="RibbonMinimize" x="1068" y="2136" width="128" height="128" style="fill:none;"/>
        <clipPath id="_clip1">
            <rect id="RibbonMinimize1" serif:id="RibbonMinimize" x="1068" y="2136" width="128" height="128"/>
        </clipPath>
        <g clip-path="url(#_clip1)">
            <g transform="matrix(1.465116,0,0,1,-257.253712,-13.796293)">
                <rect x="939.155" y="2206.297" width="33.594" height="57.703" style="fill:rgb(98,176,226);"/>
            </g>
            <g transform="matrix(0.616279,0,0,1,596.515544,-13.796293)">
                <rect x="939.155" y="2206.297" width="33.594" height="57.703" style="fill:rgb(98,176,226);"/>
            </g>
            <g transform="matrix(1.242284,0,0,1,-98.696684,-13.796293)">
                <rect x="939.155" y="2206.297" width="33.594" height="57.703" style="fill:rgb(98,176,226);"/>
            </g>
            <g transform="matrix(1,0,0,1,-76.833348,2122.203707)">
                <g transform="matrix(45.833333,0,0,45.833333,1273.618765,128)">
                </g>
                <text x="1144.048px" y="128px" style="font-family:'AdobeGothicStd-Bold', 'Adobe Gothic Std', sans-serif;font-weight:700;font-size:45.833px;fill:rgb(6,0,4);">MENU</text>
            </g>
            <g transform="matrix(1,0,0,1,-76.833348,2072)">
                <g transform="matrix(33.333333,0,0,33.333333,1268.716682,128)">
                </g>
                <text x="1148.95px" y="128px" style="font-family:'AdobeGothicStd-Bold', 'Adobe Gothic Std', sans-serif;font-weight:700;font-size:33.333px;">RIBBON</text>
            </g>
            <path d="M1141.791,2155.456L1186.224,2155.456" style="fill:none;stroke:rgb(98,176,226);stroke-width:8.33px;"/>
        </g>
    </g>
</svg>
