<?xml version="1.0" encoding="UTF-8" standalone="no"?>
<!DOCTYPE svg PUBLIC "-//W3C//DTD SVG 1.1//EN" "http://www.w3.org/Graphics/SVG/1.1/DTD/svg11.dtd">
<svg width="100%" height="100%" viewBox="0 0 128 128" version="1.1" xmlns="http://www.w3.org/2000/svg" xmlns:xlink="http://www.w3.org/1999/xlink" xml:space="preserve" xmlns:serif="http://www.serif.com/" style="fill-rule:evenodd;clip-rule:evenodd;stroke-linejoin:round;stroke-miterlimit:1.5;">
    <g transform="matrix(1,0,0,1,-534,-1424)">
        <g id="SurroundingSoilVisible" transform="matrix(1,0,0,1,534,712)">
            <rect x="0" y="712" width="128" height="128" style="fill:none;"/>
            <clipPath id="_clip1">
                <rect x="0" y="712" width="128" height="128"/>
            </clipPath>
            <g clip-path="url(#_clip1)">
                <g>
                    <g transform="matrix(1,0,0,1,-3.395137,0.807281)">
                        <ellipse cx="67.395" cy="729.646" rx="35.52" ry="7.669" style="fill:none;stroke:rgb(186,186,186);stroke-width:8.33px;stroke-dasharray:8.333,4.167,0,0,0,0;"/>
                    </g>
                    <g transform="matrix(1,0,0,1,-3.395137,34.309309)">
                        <ellipse cx="67.395" cy="729.646" rx="35.52" ry="7.669" style="fill:none;stroke:rgb(186,186,186);stroke-width:8.33px;stroke-dasharray:8.333,4.167,0,0,0,0;"/>
                    </g>
                    <g transform="matrix(1,0,0,1,-3.395137,63.371315)">
                        <ellipse cx="67.395" cy="729.646" rx="35.52" ry="7.669" style="fill:none;stroke:rgb(186,186,186);stroke-width:8.33px;stroke-dasharray:8.333,4.167,0,0,0,0;"/>
                    </g>
                    <g transform="matrix(1,0,0,1,-3.395137,98.487905)">
                        <ellipse cx="67.395" cy="729.646" rx="35.52" ry="7.669" style="fill:none;stroke:rgb(186,186,186);stroke-width:8.33px;stroke-dasharray:8.333,4.167,0,0,0,0;"/>
                    </g>
                    <path d="M28.48,793.017L28.48,828.134" style="fill:none;stroke:rgb(1,50,32);stroke-width:8.33px;stroke-dasharray:8.333,4.167,0,0,0,0;"/>
                    <g transform="matrix(1,0,0,1,71.040445,0)">
                        <path d="M28.48,793.017L28.48,828.134" style="fill:none;stroke:rgb(1,50,32);stroke-width:8.33px;stroke-dasharray:8.333,4.167,0,0,0,0;"/>
                    </g>
                    <path d="M99.52,763.955L99.52,793.017" style="fill:none;stroke:rgb(244,164,96);stroke-width:8.33px;stroke-dasharray:8.333,4.167,0,0,0,0;"/>
                    <g transform="matrix(1,0,0,1,-71.040445,0)">
                        <path d="M99.52,763.955L99.52,793.017" style="fill:none;stroke:rgb(244,164,96);stroke-width:8.33px;stroke-dasharray:8.333,4.167,0,0,0,0;"/>
                    </g>
                    <path d="M28.48,730.453L28.48,763.955" style="fill:none;stroke:rgb(139,69,19);stroke-width:8.33px;stroke-dasharray:8.333,4.167,0,0,0,0;"/>
                    <g transform="matrix(1,0,0,1,71.040445,0)">
                        <path d="M28.48,730.453L28.48,763.955" style="fill:none;stroke:rgb(139,69,19);stroke-width:8.33px;stroke-dasharray:8.333,4.167,0,0,0,0;"/>
                    </g>
                </g>
                <g transform="matrix(1,0,0,1,-178,707.665189)">
                    <g transform="matrix(0.745781,0,0,0.745781,-461.229345,-583.126279)">
                        <path d="M963.037,812.42C977.638,796.405 1002.974,797.394 1018,812.42" style="fill:white;stroke:rgb(128,128,128);stroke-width:11.17px;stroke-linecap:square;stroke-linejoin:miter;"/>
                    </g>
                    <g transform="matrix(-0.745781,-0,0,-0.745781,1016.19046,630.708284)">
                        <path d="M963.037,812.42C977.638,796.405 1002.974,797.394 1018,812.42" style="fill:white;stroke:rgb(128,128,128);stroke-width:11.17px;stroke-linecap:square;stroke-linejoin:miter;"/>
                    </g>
                    <g transform="matrix(0.745781,0,0,0.745781,-410.424194,-586.256374)">
                        <circle cx="922.395" cy="817.998" r="5.578" style="fill:white;stroke:rgb(128,128,128);stroke-width:11.17px;stroke-linecap:square;stroke-linejoin:miter;"/>
                    </g>
                </g>
            </g>
        </g>
    </g>
</svg>
