<?xml version="1.0" encoding="UTF-8" standalone="no"?>
<!DOCTYPE svg PUBLIC "-//W3C//DTD SVG 1.1//EN" "http://www.w3.org/Graphics/SVG/1.1/DTD/svg11.dtd">
<svg width="100%" height="100%" viewBox="0 0 128 128" version="1.1" xmlns="http://www.w3.org/2000/svg" xmlns:xlink="http://www.w3.org/1999/xlink" xml:space="preserve" xmlns:serif="http://www.serif.com/" style="fill-rule:evenodd;clip-rule:evenodd;stroke-linecap:round;stroke-linejoin:round;stroke-miterlimit:1.5;">
    <g transform="matrix(1,0,0,1,-356,-2136)">
        <g id="ViewCuveVisible" transform="matrix(1,0,0,1,178,0)">
            <rect x="178" y="2136" width="128" height="128" style="fill:none;"/>
            <g transform="matrix(1.053191,0,0,1.356241,-975.92594,2066.359406)">
                <path d="M1156.415,57.848L1201.793,78.193L1156.415,98.537L1111.037,78.193L1156.415,57.848Z" style="fill:none;stroke:black;stroke-width:6.86px;"/>
            </g>
            <g transform="matrix(0.526595,0.91209,-1.174539,0.678121,-299.018582,1106.017486)">
                <path d="M1156.415,57.848L1201.793,78.193L1156.415,98.537L1111.037,78.193L1156.415,57.848Z" style="fill:rgb(255,245,245);fill-opacity:0;stroke:black;stroke-width:6.86px;"/>
            </g>
            <g transform="matrix(-0.526595,0.91209,-1.174539,-0.678121,966.69912,1212.065493)">
                <path d="M1156.415,57.848L1201.793,78.193L1156.415,98.537L1111.037,78.193L1156.415,57.848Z" style="fill:rgb(255,239,239);fill-opacity:0;stroke:black;stroke-width:6.86px;"/>
            </g>
        </g>
    </g>
</svg>
